<svg width="289" height="178" viewBox="0 0 289 178" fill="none" xmlns="http://www.w3.org/2000/svg">
<path d="M27.6 166.3H33.2L37.2 174.8L41.2 166.3H46.8V177.5H43.4V168.6L39.4 177.1H35.2L31.2 168.6V177.5H27.8V166.3H27.6Z" fill="#020203"/>
<path d="M55.7 166.2H60.2L66.7 177.4H63.1L61.7 174.8H54.4L52.9 177.4H49.3L55.7 166.2ZM60.7 172.8L58 168L55.3 172.8H60.7Z" fill="#020203"/>
<path d="M69.6 176C68.1 175 67.4 173.6 67.4 171.8C67.4 170 68.1 168.6 69.6 167.6C71.1 166.6 73 166.1 75.5 166.1C78 166.1 79.8 166.5 81.2 167.4C82.5 168.3 83.2 169.3 83.2 170.4H79.6C79.6 170 79.2 169.5 78.5 169C77.8 168.5 76.7 168.3 75.4 168.3C74.1 168.3 73 168.6 72.2 169.2C71.4 169.8 70.9 170.6 70.9 171.7C70.9 172.8 71.3 173.6 72.2 174.2C73 174.8 74.1 175.1 75.4 175.1C76.7 175.1 77.7 174.8 78.5 174.3C79.2 173.8 79.6 173.3 79.6 172.9H83.2C83.2 174 82.5 175.1 81.2 176C79.9 176.9 78 177.4 75.5 177.4C73 177.5 71.1 177 69.6 176Z" fill="#020203"/>
<path d="M87.4 176C85.9 175 85.2 173.6 85.2 171.8C85.2 170 85.9 168.6 87.4 167.6C88.9 166.6 90.8 166.1 93.3 166.1C95.8 166.1 97.6 166.5 99 167.4C100.3 168.3 101 169.3 101 170.4H97.4C97.4 170 97 169.5 96.3 169C95.6 168.5 94.5 168.3 93.2 168.3C91.9 168.3 90.8 168.6 90 169.2C89.2 169.8 88.7 170.6 88.7 171.7C88.7 172.8 89.1 173.6 90 174.2C90.8 174.8 91.9 175.1 93.2 175.1C94.5 175.1 95.5 174.8 96.3 174.3C97 173.8 97.4 173.3 97.4 172.9H101C101 174 100.3 175.1 99 176C97.7 176.9 95.8 177.4 93.3 177.4C90.9 177.5 88.9 177 87.4 176Z" fill="#020203"/>
<path d="M103.7 166.3H107.2V170.9H115.2V166.3H118.7V177.5H115.2V173.1H107.2V177.5H103.7V166.3Z" fill="#020203"/>
<path d="M122.6 166.3H126V177.5H122.6V166.3Z" fill="#020203"/>
<path d="M129.8 166.3H135.4L143.1 174.8V166.3H146.6V177.5H141.1L133.3 168.7V177.5H129.8V166.3Z" fill="#020203"/>
<path d="M149.6 166.3H162.9V168.5H153.1V170.7H162.1V172.8H153.1V175.2H162.9V177.4H149.6V166.3Z" fill="#020203"/>
<path d="M249.8 0V36L285.9 0H249.8Z" fill="#020203"/>
<path d="M196.2 89.7L214.1 71.8V0H70.1L16.7 53.4V160.8L0 177.5H7.7L24.4 160.8H235.5L288.9 107.4V89.7H196.2ZM136.8 149.9H99.5V110.9L82.2 130L65 110.9V149.9H27.6V58.9H65L82.2 77.1L99.4 58.9H136.8V149.9ZM224.6 149.9H142.4V58.9H179.8V112.5H224.6V149.9Z" fill="#020203"/>
<path d="M288.9 85.3V60H232.1L206.7 85.3H288.9Z" fill="#020203"/>
<path d="M245.5 0H218.4V67.4L245.5 40.4V0Z" fill="#020203"/>
<path d="M266 26.1H288.9V3.10001L266 26.1Z" fill="#020203"/>
<path d="M261.6 30.4L236.4 55.6H288.9V30.4H261.6Z" fill="#020203"/>
</svg>
