<?xml version="1.0" encoding="utf-8"?>
<!-- Generator: Adobe Illustrator 28.1.0, SVG Export Plug-In . SVG Version: 6.00 Build 0)  -->
<svg version="1.1" xmlns="http://www.w3.org/2000/svg" xmlns:xlink="http://www.w3.org/1999/xlink" x="0px" y="0px"
	 viewBox="0 0 613.9 177.4" style="enable-background:new 0 0 613.9 177.4;" xml:space="preserve">
<style type="text/css">
	.st0{display:none;}
	.st1{display:inline;}
	.st2{fill:#020203;}
	.st3{display:inline;opacity:0.25;fill:#020203;}
</style>
<g id="testo" class="st0">
</g>
<g id="clear_space" class="st0">
</g>
<g id="artwork">
	<g>
		<g>
			<path class="st2" d="M322.4,15.5h4.5v37h-4.5V15.5z"/>
			<path class="st2" d="M333.4,22.9h2l1.3,5.4c1.2-3.1,4.3-5.7,11.5-5.7c10.1,0,12,5.6,12,14.2v15.8h-4.3V36.4
				c0-6.4-1.2-10.1-8.8-10.1s-9.3,3.6-9.3,10.1v16.1h-4.3V22.9z"/>
			<path class="st2" d="M365.6,22.9h2l1.3,5.4c1.2-3.1,4.3-5.7,11.5-5.7c10.1,0,12,5.6,12,14.2v15.8H388V36.4
				c0-6.4-1.2-10.1-8.8-10.1c-7.6,0-9.3,3.6-9.3,10.1v16.1h-4.3V22.9z"/>
			<path class="st2" d="M396.3,37.7c0-7.8,3-15.2,14.2-15.2c11.2,0,14.2,7.4,14.2,15.2c0,7.9-3,15.2-14.2,15.2
				C399.2,52.9,396.3,45.5,396.3,37.7z M410.5,49.3c7.9,0,9.8-5.2,9.8-11.6c0-6.2-1.9-11.5-9.8-11.5c-7.8,0-9.8,5.2-9.8,11.5
				S402.6,49.3,410.5,49.3z"/>
			<path class="st2" d="M424.8,22.9h4.9L440,48.7l10.8-25.8h5l-13.5,29.6h-4.6L424.8,22.9z"/>
			<path class="st2" d="M460.9,12.8c1.9,0,3.2,0.4,3.2,2.6c0,2.1-1.3,2.7-3.2,2.7c-2,0-3.3-0.6-3.3-2.7
				C457.6,13.2,458.9,12.8,460.9,12.8z M458.7,22.9h4.3v29.6h-4.3V22.9z"/>
			<path class="st2" d="M467.7,44.1c0-5.4,3.8-7.6,12.2-8.6l10.8-1.3c-0.1-5.8-1.8-8.2-9.3-8.2c-6.8,0-8.6,2.8-8.6,7.2h-4.3
				c0-6.1,2.6-10.6,12.8-10.6c11.9,0,13.7,5.1,13.7,13v17h-2.4l-0.9-6c-1.6,3.6-6.3,6.4-12.5,6.4C472.8,52.9,467.7,50.2,467.7,44.1z
				 M480,49.4c5.9,0,10.6-3.4,10.6-9.9v-2l-10.1,1.4c-6.1,0.8-8.3,2.1-8.3,5.2C472.2,47.6,475.2,49.4,480,49.4z"/>
			<path class="st2" d="M500.4,22.9h2l1.3,4.6c1-2.6,4-5,9.5-5c5.1,0,7.8,2.1,8.9,5.8c0.9-3.1,3.8-5.8,9.7-5.8c8.2,0,10,5.5,10,12.8
				v17.2h-4.5V35.1c0-5.4-1.2-8.8-6.8-8.8c-5.7,0-7.2,3.3-7.2,8.8v17.4h-4.4V35.1c0-5.4-1.3-8.8-6.9-8.8c-5.6,0-7.2,3.3-7.2,8.8
				v17.4h-4.3V22.9z"/>
			<path class="st2" d="M545.7,37.7c0-7.8,3-15.2,14.2-15.2c11.2,0,14.2,7.4,14.2,15.2c0,7.9-3,15.2-14.2,15.2
				C548.5,52.9,545.7,45.5,545.7,37.7z M559.8,49.3c7.9,0,9.8-5.2,9.8-11.6c0-6.2-1.9-11.5-9.8-11.5c-7.8,0-9.8,5.2-9.8,11.5
				S552,49.3,559.8,49.3z"/>
			<path class="st2" d="M321.8,66.2h4.3v40.9h-4.3V66.2z"/>
			<path class="st2" d="M330.7,98.7c0-5.4,3.8-7.6,12.2-8.6l10.8-1.3c-0.1-5.8-1.8-8.2-9.3-8.2c-6.8,0-8.6,2.8-8.6,7.2h-4.3
				c0-6.1,2.6-10.6,12.8-10.6c11.9,0,13.7,5.1,13.7,13v17h-2.4l-0.9-6c-1.6,3.6-6.3,6.4-12.5,6.4
				C335.8,107.5,330.7,104.8,330.7,98.7z M343,104c5.9,0,10.6-3.4,10.6-9.9v-2l-10.1,1.4c-6.1,0.8-8.3,2.1-8.3,5.2
				C335.2,102.2,338.2,104,343,104z"/>
			<path class="st2" d="M378.7,98.5V81.1h-4.1v-2.7l4.1-1v-7.3h4.1v7.4h9.5v3.6H383v17.4c0,3.6,1.6,5.3,7.3,5.3c0.6,0,1.3,0,2-0.1
				v3.6c-0.9,0.1-1.8,0.1-2.6,0.1C382,107.4,378.7,104.9,378.7,98.5z"/>
			<path class="st2" d="M396.2,77.5h2l1.3,5.1c1.2-3,4.4-6.1,11.3-5.4v3.9c-8.4-1-10.2,3.4-10.2,9.8v16.3h-4.3V77.5z"/>
			<path class="st2" d="M411,98.7c0-5.4,3.8-7.6,12.2-8.6l10.8-1.3c-0.1-5.8-1.8-8.2-9.3-8.2c-6.8,0-8.6,2.8-8.6,7.2h-4.3
				c0-6.1,2.6-10.6,12.8-10.6c11.9,0,13.7,5.1,13.7,13v17h-2.4l-0.9-6c-1.6,3.6-6.3,6.4-12.5,6.4C416.1,107.5,411,104.8,411,98.7z
				 M423.4,104c5.9,0,10.6-3.4,10.6-9.9v-2l-10.1,1.4c-6.1,0.8-8.3,2.1-8.3,5.2C415.5,102.2,418.5,104,423.4,104z"/>
			<path class="st2" d="M442.3,92.3c0-8.3,2.6-15.1,12.8-15.1c6.7,0,9.8,2.4,11,5.4V66.2h4.3v40.9H468c-0.1-0.8-0.5-2.8-0.9-5.6
				c-1.2,3.1-4.5,5.9-11.9,5.9C445,107.5,442.3,100.7,442.3,92.3z M456.3,103.8c8.2,0,10-4.5,10-11.6c0-6.5-1.4-11.4-9.8-11.4
				c-8.1,0-9.8,4.6-9.8,11.4C446.7,99.2,448.4,103.8,456.3,103.8z"/>
			<path class="st2" d="M478.5,67.4c1.9,0,3.2,0.4,3.2,2.6c0,2.1-1.3,2.7-3.2,2.7c-2,0-3.3-0.6-3.3-2.7
				C475.2,67.8,476.4,67.4,478.5,67.4z M476.3,77.5h4.3v29.6h-4.3V77.5z"/>
			<path class="st2" d="M485,103.4l18.5-22.3h-18.3v-3.6h23.6v3.8l-18.7,22.3h19.3v3.6H485V103.4z"/>
			<path class="st2" d="M515.8,67.4c1.9,0,3.2,0.4,3.2,2.6c0,2.1-1.3,2.7-3.2,2.7c-2,0-3.3-0.6-3.3-2.7
				C512.5,67.8,513.8,67.4,515.8,67.4z M513.6,77.5h4.3v29.6h-4.3V77.5z"/>
			<path class="st2" d="M522.3,92.3c0-7.8,3-15.2,14.2-15.2c11.2,0,14.2,7.4,14.2,15.2c0,7.9-3,15.2-14.2,15.2
				C525.2,107.5,522.3,100.1,522.3,92.3z M536.4,103.9c7.9,0,9.8-5.2,9.8-11.6c0-6.2-1.9-11.5-9.8-11.5c-7.8,0-9.8,5.2-9.8,11.5
				C526.7,98.6,528.6,103.9,536.4,103.9z"/>
			<path class="st2" d="M555,77.5h2l1.3,5.4c1.2-3.1,4.3-5.7,11.5-5.7c10.1,0,12,5.6,12,14.2v15.8h-4.3V91c0-6.4-1.2-10.1-8.8-10.1
				c-7.6,0-9.3,3.6-9.3,10.1v16.1H555V77.5z"/>
			<path class="st2" d="M585.7,92.1c0-7.6,3-15,14.8-15c10.4,0,13.4,6.5,13.4,14.8c0,0.8,0,1.4-0.1,2.2h-23.6c0.3,5.8,3,10,10.1,10
				c6.2,0,8.4-3.1,9-6.2h4.5c-0.5,5.1-3.9,9.6-13.4,9.6C588.4,107.5,585.7,100.1,585.7,92.1z M609.4,90.6c0-5.7-2.5-10-9.3-10
				c-7.5,0-9.7,4.7-9.8,10H609.4z"/>
		</g>
		<g>
			<g>
				<path class="st2" d="M27.6,166.3h5.6l4,8.5h0l4-8.5h5.6v11.2h-3.4v-8.9h0l-4,8.5h-4.2l-4-8.5h0v8.9h-3.4V166.3z"/>
				<path class="st2" d="M55.7,166.2h4.5l6.5,11.2h-3.6l-1.4-2.6h-7.3l-1.5,2.6h-3.6L55.7,166.2z M60.7,172.8L58,168h0l-2.7,4.8
					H60.7z"/>
				<path class="st2" d="M69.6,176c-1.5-1-2.2-2.4-2.2-4.2c0-1.8,0.7-3.2,2.2-4.2c1.5-1,3.4-1.5,5.9-1.5c2.5,0,4.3,0.4,5.7,1.3
					c1.3,0.9,2,1.9,2,3h-3.6c0-0.4-0.4-0.9-1.1-1.4c-0.7-0.5-1.8-0.7-3.1-0.7c-1.3,0-2.4,0.3-3.2,0.9c-0.8,0.6-1.3,1.4-1.3,2.5
					c0,1.1,0.4,1.9,1.3,2.5c0.8,0.6,1.9,0.9,3.2,0.9c1.3,0,2.3-0.3,3.1-0.8c0.7-0.5,1.1-1,1.1-1.4h3.6c0,1.1-0.7,2.2-2,3.1
					c-1.3,0.9-3.2,1.4-5.7,1.4C73,177.5,71.1,177,69.6,176z"/>
				<path class="st2" d="M87.4,176c-1.5-1-2.2-2.4-2.2-4.2c0-1.8,0.7-3.2,2.2-4.2c1.5-1,3.4-1.5,5.9-1.5c2.5,0,4.3,0.4,5.7,1.3
					c1.3,0.9,2,1.9,2,3h-3.6c0-0.4-0.4-0.9-1.1-1.4c-0.7-0.5-1.8-0.7-3.1-0.7c-1.3,0-2.4,0.3-3.2,0.9c-0.8,0.6-1.3,1.4-1.3,2.5
					c0,1.1,0.4,1.9,1.3,2.5c0.8,0.6,1.9,0.9,3.2,0.9c1.3,0,2.3-0.3,3.1-0.8c0.7-0.5,1.1-1,1.1-1.4h3.6c0,1.1-0.7,2.2-2,3.1
					c-1.3,0.9-3.2,1.4-5.7,1.4C90.9,177.5,88.9,177,87.4,176z"/>
				<path class="st2" d="M103.7,166.3h3.5v4.6h8v-4.6h3.5v11.2h-3.5v-4.4h-8v4.4h-3.5V166.3z"/>
				<path class="st2" d="M122.6,166.3h3.4v11.2h-3.4V166.3z"/>
				<path class="st2" d="M129.8,166.3h5.6l7.7,8.5h0v-8.5h3.5v11.2h-5.5l-7.8-8.8h0v8.8h-3.5V166.3z"/>
				<path class="st2" d="M149.6,166.3h13.3v2.2h-9.8v2.2h9v2.1h-9v2.4h9.8v2.2h-13.3V166.3z"/>
			</g>
			<g>
				<polygon class="st2" points="249.8,0 249.8,36 285.9,0 				"/>
				<path class="st2" d="M196.2,89.7l17.9-17.9V0H70.1L16.7,53.4v107.4L0,177.5h7.7l16.7-16.7h211.1l53.4-53.4V89.7H196.2z
					 M136.8,149.9H99.5v-39L82.2,130L65,110.9v39H27.6v-91H65l17.2,18.2l17.2-18.2h37.4V149.9z M224.6,149.9h-82.2v-91h37.4v53.6
					h44.8V149.9z"/>
				<polygon class="st2" points="288.9,85.3 288.9,60 232.1,60 206.7,85.3 				"/>
				<polygon class="st2" points="245.5,0 218.4,0 218.4,67.4 245.5,40.4 				"/>
				<polygon class="st2" points="266,26.1 288.9,26.1 288.9,3.1 				"/>
				<polygon class="st2" points="261.6,30.4 236.4,55.6 288.9,55.6 288.9,30.4 				"/>
			</g>
		</g>
	</g>
</g>
</svg>
