<svg width="293" height="95" viewBox="0 0 293 95" fill="none" xmlns="http://www.w3.org/2000/svg">
<path d="M0.600006 2.7H5.10001V39.7H0.600006V2.7Z" fill="#020203"/>
<path d="M11.6 10.1H13.6L14.9 15.5C16.1 12.4 19.2 9.8 26.4 9.8C36.5 9.8 38.4 15.4 38.4 24V39.8H34.1V23.6C34.1 17.2 32.9 13.5 25.3 13.5C17.7 13.5 16 17.1 16 23.6V39.7H11.7V10.1H11.6Z" fill="#020203"/>
<path d="M43.8 10.1H45.8L47.1 15.5C48.3 12.4 51.4 9.8 58.6 9.8C68.7 9.8 70.6 15.4 70.6 24V39.8H66.2V23.6C66.2 17.2 65 13.5 57.4 13.5C49.8 13.5 48.1 17.1 48.1 23.6V39.7H43.8V10.1Z" fill="#020203"/>
<path d="M74.5 24.9C74.5 17.1 77.5 9.7 88.7 9.7C99.9 9.7 102.9 17.1 102.9 24.9C102.9 32.8 99.9 40.1 88.7 40.1C77.4 40.1 74.5 32.7 74.5 24.9ZM88.7 36.5C96.6 36.5 98.5 31.3 98.5 24.9C98.5 18.7 96.6 13.4 88.7 13.4C80.9 13.4 78.9 18.6 78.9 24.9C78.9 31.2 80.8 36.5 88.7 36.5Z" fill="#020203"/>
<path d="M103 10.1H107.9L118.2 35.9L129 10.1H134L120.5 39.7H115.9L103 10.1Z" fill="#020203"/>
<path d="M139.1 0C141 0 142.3 0.399999 142.3 2.6C142.3 4.7 141 5.3 139.1 5.3C137.1 5.3 135.8 4.7 135.8 2.6C135.8 0.399999 137.1 0 139.1 0ZM136.9 10.1H141.2V39.7H136.9V10.1Z" fill="#020203"/>
<path d="M145.9 31.3C145.9 25.9 149.7 23.7 158.1 22.7L168.9 21.4C168.8 15.6 167.1 13.2 159.6 13.2C152.8 13.2 151 16 151 20.4H146.7C146.7 14.3 149.3 9.8 159.5 9.8C171.4 9.8 173.2 14.9 173.2 22.8V39.8H170.8L169.9 33.8C168.3 37.4 163.6 40.2 157.4 40.2C151 40.1 145.9 37.4 145.9 31.3ZM158.2 36.6C164.1 36.6 168.8 33.2 168.8 26.7V24.7L158.7 26.1C152.6 26.9 150.4 28.2 150.4 31.3C150.4 34.8 153.4 36.6 158.2 36.6Z" fill="#020203"/>
<path d="M178.6 10.1H180.6L181.9 14.7C182.9 12.1 185.9 9.7 191.4 9.7C196.5 9.7 199.2 11.8 200.3 15.5C201.2 12.4 204.1 9.7 210 9.7C218.2 9.7 220 15.2 220 22.5V39.7H215.5V22.3C215.5 16.9 214.3 13.5 208.7 13.5C203 13.5 201.5 16.8 201.5 22.3V39.7H197.1V22.3C197.1 16.9 195.8 13.5 190.2 13.5C184.6 13.5 183 16.8 183 22.3V39.7H178.7V10.1H178.6Z" fill="#020203"/>
<path d="M223.9 24.9C223.9 17.1 226.9 9.7 238.1 9.7C249.3 9.7 252.3 17.1 252.3 24.9C252.3 32.8 249.3 40.1 238.1 40.1C226.7 40.1 223.9 32.7 223.9 24.9ZM238 36.5C245.9 36.5 247.8 31.3 247.8 24.9C247.8 18.7 245.9 13.4 238 13.4C230.2 13.4 228.2 18.6 228.2 24.9C228.2 31.2 230.2 36.5 238 36.5Z" fill="#020203"/>
<path d="M0 53.4H4.30002V94.3H0V53.4Z" fill="#020203"/>
<path d="M8.90002 85.9C8.90002 80.5 12.7 78.3 21.1 77.3L31.9 76C31.8 70.2 30.1 67.8 22.6 67.8C15.8 67.8 14 70.6 14 75H9.70001C9.70001 68.9 12.3 64.4 22.5 64.4C34.4 64.4 36.2 69.5 36.2 77.4V94.4H33.8L32.9 88.4C31.3 92 26.6 94.8 20.4 94.8C14 94.7 8.90002 92 8.90002 85.9ZM21.2 91.2C27.1 91.2 31.8 87.8 31.8 81.3V79.3L21.7 80.7C15.6 81.5 13.4 82.8 13.4 85.9C13.4 89.4 16.4 91.2 21.2 91.2Z" fill="#020203"/>
<path d="M56.9 85.7V68.3H52.8V65.6L56.9 64.6V57.3H61V64.7H70.5V68.3H61.2V85.7C61.2 89.3 62.8 91 68.5 91C69.1 91 69.8 91 70.5 90.9V94.5C69.6 94.6 68.7 94.6 67.9 94.6C60.2 94.6 56.9 92.1 56.9 85.7Z" fill="#020203"/>
<path d="M74.4 64.7H76.4L77.7 69.8C78.9 66.8 82.1 63.7 89 64.4V68.3C80.6 67.3 78.8 71.7 78.8 78.1V94.4H74.5V64.7H74.4Z" fill="#020203"/>
<path d="M89.2 85.9C89.2 80.5 93 78.3 101.4 77.3L112.2 76C112.1 70.2 110.4 67.8 102.9 67.8C96.1 67.8 94.3 70.6 94.3 75H90C90 68.9 92.6 64.4 102.8 64.4C114.7 64.4 116.5 69.5 116.5 77.4V94.4H114.1L113.2 88.4C111.6 92 106.9 94.8 100.7 94.8C94.3 94.7 89.2 92 89.2 85.9ZM101.6 91.2C107.5 91.2 112.2 87.8 112.2 81.3V79.3L102.1 80.7C96 81.5 93.8 82.8 93.8 85.9C93.7 89.4 96.7 91.2 101.6 91.2Z" fill="#020203"/>
<path d="M120.5 79.5C120.5 71.2 123.1 64.4 133.3 64.4C140 64.4 143.1 66.8 144.3 69.8V53.4H148.6V94.3H146.2C146.1 93.5 145.7 91.5 145.3 88.7C144.1 91.8 140.8 94.6 133.4 94.6C123.2 94.7 120.5 87.9 120.5 79.5ZM134.5 91C142.7 91 144.5 86.5 144.5 79.4C144.5 72.9 143.1 68 134.7 68C126.6 68 124.9 72.6 124.9 79.4C124.9 86.4 126.6 91 134.5 91Z" fill="#020203"/>
<path d="M156.7 54.6C158.6 54.6 159.9 55 159.9 57.2C159.9 59.3 158.6 59.9 156.7 59.9C154.7 59.9 153.4 59.3 153.4 57.2C153.4 55 154.6 54.6 156.7 54.6ZM154.5 64.7H158.8V94.3H154.5V64.7Z" fill="#020203"/>
<path d="M163.2 90.6L181.7 68.3H163.4V64.7H187V68.5L168.3 90.8H187.6V94.4H163.2V90.6Z" fill="#020203"/>
<path d="M194 54.6C195.9 54.6 197.2 55 197.2 57.2C197.2 59.3 195.9 59.9 194 59.9C192 59.9 190.7 59.3 190.7 57.2C190.7 55 192 54.6 194 54.6ZM191.8 64.7H196.1V94.3H191.8V64.7Z" fill="#020203"/>
<path d="M200.5 79.5C200.5 71.7 203.5 64.3 214.7 64.3C225.9 64.3 228.9 71.7 228.9 79.5C228.9 87.4 225.9 94.7 214.7 94.7C203.4 94.7 200.5 87.3 200.5 79.5ZM214.6 91.1C222.5 91.1 224.4 85.9 224.4 79.5C224.4 73.3 222.5 68 214.6 68C206.8 68 204.8 73.2 204.8 79.5C204.9 85.8 206.8 91.1 214.6 91.1Z" fill="#020203"/>
<path d="M233.2 64.7H235.2L236.5 70.1C237.7 67 240.8 64.4 248 64.4C258.1 64.4 260 70 260 78.6V94.4H255.7V78.2C255.7 71.8 254.5 68.1 246.9 68.1C239.3 68.1 237.6 71.7 237.6 78.2V94.3H233.2V64.7Z" fill="#020203"/>
<path d="M263.9 79.3C263.9 71.7 266.9 64.3 278.7 64.3C289.1 64.3 292.1 70.8 292.1 79.1C292.1 79.9 292.1 80.5 292 81.3H268.4C268.7 87.1 271.4 91.3 278.5 91.3C284.7 91.3 286.9 88.2 287.5 85.1H292C291.5 90.2 288.1 94.7 278.6 94.7C266.6 94.7 263.9 87.3 263.9 79.3ZM287.6 77.8C287.6 72.1 285.1 67.8 278.3 67.8C270.8 67.8 268.6 72.5 268.5 77.8H287.6Z" fill="#020203"/>
</svg>
